<svg width="191" height="22" viewBox="0 0 191 22" fill="none" xmlns="http://www.w3.org/2000/svg">
<path fill-rule="evenodd" clip-rule="evenodd" d="M15.5563 20.8247V7.47928C15.5563 5.11328 16.1331 3.27524 17.2868 1.96514C18.46 0.655048 20.122 0 22.2729 0C24.4434 0 26.1055 0.527949 27.2591 1.58385C28.4323 2.63974 29.019 4.12582 29.019 6.04208C29.019 7.27396 28.7256 8.28098 28.139 9.06312C27.5524 9.84527 26.5552 10.4612 25.1473 10.9109V11.0283C26.6138 11.5953 27.5915 12.4068 28.0804 13.4627C28.5888 14.499 28.843 16.2198 28.843 18.6249V20.8247H26.0859V17.0703C26.0859 15.5843 25.6655 14.4306 24.8247 13.6094C23.9839 12.7685 22.7716 12.3481 21.1877 12.3481H19.6039V9.76706H21.2757C23.1529 9.76706 24.4532 9.38576 25.1767 8.62317C25.9001 7.86057 26.2619 6.95133 26.2619 5.89543C26.2619 4.89819 25.9001 4.09649 25.1767 3.49033C24.4727 2.88417 23.5342 2.58108 22.3609 2.58108C21.0117 2.58108 19.9949 2.96238 19.3106 3.72497C18.6457 4.48757 18.3133 5.739 18.3133 7.47928V20.8247H15.5563ZM-0.000366211 10.559C0.0191875 7.29352 0.918656 4.77109 2.69804 2.99171C4.49698 1.19277 6.97052 0.293305 10.1187 0.293305H12.0251V2.87439H9.76669C7.59623 2.87439 5.92439 3.59787 4.75117 5.04484C3.59751 6.47226 3.00112 8.31031 2.96201 10.559C3.00112 12.8076 3.59751 14.6555 4.75117 16.1024C5.92439 17.5299 7.59623 18.2436 9.76669 18.2436H12.0251V20.8247H10.1187C6.97052 20.8247 4.49698 19.935 2.69804 18.1556C0.918656 16.3566 0.0191875 13.8244 -0.000366211 10.559ZM32.3984 20.8247H44.0719V18.2436H35.1554V11.4976H41.9308V8.91647H35.1554V5.57279C35.1554 3.77386 36.2309 2.87439 38.3818 2.87439H44.0719V0.293305H38.7631C37.629 0.293305 36.6708 0.381296 35.8887 0.557279C35.1066 0.733262 34.4026 1.11456 33.7769 1.70117C32.8579 2.58108 32.3984 3.74453 32.3984 5.1915V20.8247ZM49.7565 20.8247H47.1461V7.91923C47.1461 5.80744 47.8207 4.0085 49.1699 2.52242C50.5387 1.03634 52.2985 0.293305 54.4494 0.293305H61.1661V20.8247H58.409V2.87439H54.4494C53.022 2.87439 51.8781 3.29479 51.0177 4.1356C50.1769 4.97641 49.7565 6.31583 49.7565 8.15388V10.647C50.8515 9.4933 52.4158 8.91647 54.4494 8.91647H57.1185V11.4976H54.4494C53.3153 11.4976 52.3865 11.6344 51.663 11.9082C50.9591 12.1819 50.3236 12.6512 49.7565 13.316V20.8247ZM63.9642 0.293305V2.87439H69.0384V20.8247H71.7954V2.87439H76.8696V0.293305H63.9642ZM82.4199 20.8247H79.6629V0.293305H82.4199V20.8247ZM88.0766 0.293499H85.1435L93.4111 21.5581L101.275 0.293499H98.3423L93.2094 13.4922L88.0766 0.293499ZM115.247 20.8248H103.573V18.2437H112.49V11.4977H105.714V8.91662H112.49V5.57295C112.49 3.77401 111.414 2.87454 109.263 2.87454H103.573V0.293457H108.882C110.016 0.293457 110.974 0.381449 111.756 0.557432C112.538 0.733415 113.242 1.11471 113.868 1.70132C114.787 2.58124 115.247 3.74468 115.247 5.19165V20.8248ZM152.606 0.293457H120.342V21.5581H142.34H143.807H190.002V0.293457H154.072H152.606ZM150.316 5.0375C149.653 4.81402 148.943 4.69287 148.205 4.69287C144.56 4.69287 141.606 7.64751 141.606 11.2922C141.606 13.6154 142.806 15.6582 144.621 16.8341L150.316 5.0375ZM145.796 17.4379C146.542 17.7308 147.355 17.8916 148.205 17.8916C151.85 17.8916 154.805 14.937 154.805 11.2922C154.805 8.85514 153.483 6.7266 151.518 5.58362L145.796 17.4379ZM131.033 17.8916H128.409V4.69287H137.594C137.594 4.69287 139.1 5.85173 139.562 6.89266C140.165 8.24752 140.349 9.39814 139.562 10.6637C139.051 11.4874 137.594 12.235 137.594 12.235L140.875 17.8916H138.25L134.642 12.235V10.6637H136.938C138.382 9.72096 138.382 8.14968 136.938 7.20691H131.033V17.8916ZM162.14 17.8916C165.784 17.8916 168.739 14.937 168.739 11.2922C168.739 7.64751 165.784 4.69287 162.14 4.69287C158.495 4.69287 155.54 7.64751 155.54 11.2922C155.54 14.937 158.495 17.8916 162.14 17.8916ZM171.986 17.8916H169.472V4.69287H172.614L175.757 12.6121H176.385L179.528 4.69287H182.671V17.8916H180.156V9.31242H179.528L176.385 17.8916H175.757L172.614 9.31242H171.986V17.8916Z" fill="white"/>
</svg>
