<svg width="89" height="47" viewBox="0 0 89 47" fill="none" xmlns="http://www.w3.org/2000/svg">
<path fill-rule="evenodd" clip-rule="evenodd" d="M6.91551 10.7271H10.9382V17.8784H14.9608C14.9608 17.8784 15.9986 17.6047 16.3017 17.4315C16.6406 17.2378 16.9721 16.9845 16.9721 16.9845L4.6807 0H14.9608C14.9608 0 24.5705 1.1174 24.7939 10.7271C25.0174 20.3367 14.9608 21.4541 14.9608 21.4541H6.91551V10.7271ZM12.279 3.57553L20.3243 14.3026C20.3243 14.3026 21.5271 9.92374 20.3243 7.59818C19.5304 6.06338 18.7106 5.3003 17.1955 4.46945C15.4844 3.5311 12.279 3.57553 12.279 3.57553ZM29.6104 21.4541H24.7942L35.3023 0H36.178L46.2483 21.4541H35.7402V17.9514H40.1186L35.7402 8.75679L29.6104 21.4541ZM52.0586 21.4541H48.0359V12.9619H53.8464L46.2481 0H56.5282C56.5282 0 61.8917 0.446961 63.4561 6.25745C65.0205 12.0679 60.1039 15.1967 60.1039 15.1967L64.1265 21.4541H59.21L56.0812 16.5376H52.0586V21.4541ZM57.8688 12.0678L52.9522 4.02246H56.0809C56.0809 4.02246 58.5392 4.02246 59.6566 7.15119C60.774 10.2799 57.8688 12.0678 57.8688 12.0678ZM71.118 0H67.2562V21.4541L73.6925 13.3016L78.8414 20.596H83.5614L76.267 10.0834L83.5614 0H78.8414L71.118 10.7271V0ZM7.36303 44.6963H11.3857V39.7797H15.4083L18.5371 44.6963H23.4536L19.431 38.4389C19.431 38.4389 24.3475 35.3101 22.7832 29.4996C21.2188 23.6891 15.8553 23.2422 15.8553 23.2422H5.57518L13.1735 36.2041H7.36303V44.6963ZM12.2783 27.2646L17.1948 35.3099C17.1948 35.3099 20.1001 33.5221 18.9827 30.3934C17.8653 27.2646 15.407 27.2646 15.407 27.2646H12.2783ZM37.8236 41.2303C36.8726 41.7449 35.7837 42.0371 34.6265 42.0371C30.9113 42.0371 27.8994 39.0253 27.8994 35.3101C27.8994 33.9051 28.3302 32.6007 29.0668 31.5217L37.8236 41.2303ZM40.0787 39.2514L31.2662 29.4811C32.255 28.9099 33.4026 28.583 34.6265 28.583C38.1986 28.583 41.1203 31.3671 41.3403 34.8837C41.3348 35.0251 41.332 35.1673 41.332 35.3101C41.332 35.4529 41.3348 35.595 41.3403 35.7365C41.2585 37.0447 40.8027 38.2515 40.0787 39.2514ZM43.3428 41.5642C41.3957 44.273 38.2171 46.0371 34.6265 46.0371C28.7021 46.0371 23.8994 41.2345 23.8994 35.3101C23.8994 29.3857 28.7021 24.583 34.6265 24.583C38.2171 24.583 41.3957 26.3471 43.3428 29.0559C45.2898 26.3471 48.4684 24.583 52.059 24.583C57.9834 24.583 62.7861 29.3857 62.7861 35.3101C62.7861 41.2345 57.9834 46.0371 52.059 46.0371C48.4684 46.0371 45.2898 44.273 43.3428 41.5642ZM45.3453 35.7365C45.4271 37.0445 45.8827 38.2513 46.6066 39.2511L55.419 29.4809C54.4303 28.9098 53.2828 28.583 52.059 28.583C48.487 28.583 45.5652 31.3671 45.3453 34.8837C45.3508 35.0251 45.3536 35.1673 45.3536 35.3101C45.3536 35.4529 45.3508 35.595 45.3453 35.7365ZM52.059 42.0371C50.9017 42.0371 49.8126 41.7449 48.8616 41.2302L57.6185 31.5214C58.3553 32.6004 58.7861 33.9049 58.7861 35.3101C58.7861 39.0253 55.7743 42.0371 52.059 42.0371ZM64.8083 24.583L68.5788 23.6528L73.707 33.413L78.6578 23.6765L82.4406 24.583V46.0371H78.4406V32.929L75.5189 38.6749L73.7653 42.1237L71.9657 38.6986L68.8083 32.6894V46.0371H64.8083V24.583ZM0.000244141 45.5898V0.446777H4.00024V45.5898H0.000244141ZM84.4757 0.446777V45.5898H88.4757V0.446777H84.4757Z" fill="white"/>
</svg>
