<svg width="39" height="38" viewBox="0 0 39 38" fill="none" xmlns="http://www.w3.org/2000/svg">
<ellipse cx="19.6395" cy="19.001" rx="18.8875" ry="19" fill="#82FFE1"/>
<path d="M30.5744 12.1283C29.7698 12.4904 28.9057 12.7347 27.9972 12.8434C28.9235 12.2813 29.6351 11.391 29.9707 10.3304C29.1033 10.8503 28.1435 11.2297 27.1215 11.4325C26.3025 10.5498 25.1363 9.99805 23.845 9.99805C21.3669 9.99805 19.3592 12.032 19.3592 14.5417C19.3592 14.8975 19.3982 15.245 19.4747 15.5774C15.7457 15.3877 12.4398 13.5787 10.2263 10.8295C9.84074 11.501 9.61925 12.2813 9.61925 13.1141C9.61925 14.6912 10.4115 16.0814 11.6147 16.8969C10.8798 16.8727 10.188 16.6691 9.58302 16.3285C9.58233 16.3472 9.58233 16.3673 9.58233 16.3853C9.58233 18.5875 11.1286 20.4242 13.1815 20.8417C12.8055 20.9448 12.409 21.0009 11.9995 21.0009C11.7097 21.0009 11.4294 20.9725 11.156 20.9199C11.7261 22.724 13.3838 24.038 15.3465 24.0754C13.8118 25.2939 11.8772 26.0215 9.77511 26.0215C9.4128 26.0215 9.05528 26 8.70459 25.9578C10.6898 27.2455 13.0482 27.998 15.5823 27.998C23.8347 27.998 28.3486 21.0743 28.3486 15.0692C28.3486 14.8726 28.3431 14.676 28.3349 14.4807C29.212 13.8404 29.9721 13.0407 30.5744 12.1283Z" fill="#3B4040"/>
</svg>
