<svg width="38" height="38" viewBox="0 0 38 38" fill="none" xmlns="http://www.w3.org/2000/svg">
<ellipse cx="18.983" cy="19.001" rx="18.8875" ry="19" fill="#82FFE1"/>
<path d="M23.975 7.99902H13.9905C10.7136 7.99902 8.04785 10.6807 8.04785 13.9771V24.021C8.04785 27.3174 10.7136 29.999 13.9905 29.999H23.975C27.2519 29.999 29.9176 27.3174 29.9176 24.021V13.9771C29.9176 10.6807 27.2519 7.99902 23.975 7.99902ZM27.9295 24.021C27.9295 26.2144 26.1554 27.999 23.975 27.999H13.9905C11.8101 27.999 10.036 26.2144 10.036 24.021V13.9771C10.036 11.7837 11.8101 9.99902 13.9905 9.99902H23.975C26.1554 9.99902 27.9295 11.7837 27.9295 13.9771V24.021ZM18.9827 12.999C15.6937 12.999 13.0183 15.6904 13.0183 18.999C13.0183 22.3076 15.6937 24.999 18.9827 24.999C22.2718 24.999 24.9472 22.3076 24.9472 18.999C24.9472 15.6904 22.2718 12.999 18.9827 12.999ZM18.9827 22.999C16.7902 22.999 15.0064 21.2046 15.0064 18.999C15.0064 16.7935 16.7902 14.999 18.9827 14.999C21.1753 14.999 22.9591 16.7935 22.9591 18.999C22.9591 21.2046 21.1753 22.999 18.9827 22.999ZM24.9472 11.999C24.3992 11.999 23.9531 12.4478 23.9531 12.999C23.9531 13.5503 24.3992 13.999 24.9472 13.999C25.4952 13.999 25.9413 13.5503 25.9413 12.999C25.9413 12.4478 25.4952 11.999 24.9472 11.999Z" fill="#3B4040"/>
</svg>
