<?xml version="1.0" standalone="no"?>
<!DOCTYPE svg PUBLIC "-//W3C//DTD SVG 20010904//EN"
 "http://www.w3.org/TR/2001/REC-SVG-20010904/DTD/svg10.dtd">
<svg version="1.0" xmlns="http://www.w3.org/2000/svg"
 width="255.000000pt" height="255.000000pt" viewBox="0 0 255.000000 255.000000"
 preserveAspectRatio="xMidYMid meet">

<g transform="translate(0.000000,255.000000) scale(0.100000,-0.100000)"
fill="#000000" stroke="none">
<path d="M569 2410 c-217 -33 -378 -179 -430 -390 -20 -80 -20 -1420 0 -1500
47 -191 190 -334 381 -381 80 -20 1420 -20 1500 0 191 47 334 190 381 381 20
80 20 1420 0 1500 -45 185 -177 321 -362 378 -47 14 -138 16 -734 18 -374 1
-705 -2 -736 -6z m229 -358 c98 -52 122 -184 48 -258 l-33 -33 26 -17 c14 -9
36 -28 48 -43 l22 -26 1 203 0 202 420 0 419 0 10 -37 c6 -21 26 -103 45 -183
20 -80 39 -156 42 -170 5 -18 21 30 58 180 l51 205 158 3 157 3 -2 -358 -3
-358 -100 0 -100 0 -5 220 -5 220 -60 -220 -60 -220 -78 -3 c-72 -3 -78 -1
-87 20 -6 13 -35 113 -65 223 l-53 200 -4 -220 -3 -220 -102 -3 -103 -3 0 276
0 275 -155 0 -155 0 0 -55 0 -55 100 0 100 0 0 -80 0 -80 -100 0 -100 0 0
-121 0 -120 26 20 c32 25 47 26 68 5 26 -25 19 -39 -45 -101 -206 -198 -331
-499 -346 -838 -6 -120 -16 -155 -49 -155 -43 0 -53 66 -35 225 l8 70 -93 235
c-52 129 -94 238 -94 242 0 5 19 8 43 8 l44 0 58 -155 c32 -86 61 -158 65
-160 4 -2 17 30 29 73 26 88 104 258 152 329 17 26 54 74 81 105 l49 57 -88 3
-88 3 -3 61 -3 60 -47 -47 c-68 -68 -95 -73 -362 -74 l-225 0 -3 358 -2 359
242 -4 c231 -3 245 -4 286 -26z m1155 -1212 l157 -165 0 218 0 217 50 0 50 0
0 -335 c0 -184 -1 -335 -3 -335 -2 0 -104 106 -228 236 l-224 236 -5 -219 -5
-218 -47 -3 -48 -3 0 343 0 343 73 -75 c40 -41 143 -149 230 -240z m-515 245
c66 -36 117 -91 150 -164 33 -73 35 -183 4 -254 -29 -65 -104 -142 -171 -174
-79 -39 -191 -40 -272 -2 -76 36 -133 90 -166 157 -24 50 -28 69 -28 147 0
104 18 150 89 223 74 78 138 102 256 99 72 -3 93 -7 138 -32z m-1008 -245 l0
-269 93 -3 92 -3 0 -45 0 -45 -142 -3 -143 -3 0 321 0 320 50 0 50 0 0 -270z"/>
<path d="M490 1855 l0 -55 73 0 c82 0 117 16 117 55 0 39 -35 55 -117 55 l-73
0 0 -55z"/>
<path d="M490 1605 l0 -65 89 0 c105 0 124 11 119 69 -4 48 -32 61 -130 61
l-78 0 0 -65z"/>
<path d="M1205 1019 c-45 -12 -110 -72 -134 -122 -27 -55 -28 -146 -2 -202 40
-87 121 -139 216 -138 154 1 261 141 225 293 -32 134 -168 209 -305 169z"/>
</g>
</svg>
