<svg width="67" height="57" viewBox="0 0 67 57" fill="none" xmlns="http://www.w3.org/2000/svg">
<path fill-rule="evenodd" clip-rule="evenodd" d="M7.5547 20.531C11.145 9.76134 21.2986 1.99825 33.2627 1.99825C45.1834 1.99825 55.3066 9.70498 58.9314 20.4137H55.8864V24.147H59.9035C60.0847 25.1251 60.2135 26.1216 60.2868 27.1336H55.8864V30.8669H63.3448V27.1336H61.2894C61.2187 26.1224 61.0947 25.1259 60.92 24.147H66.5768V20.4137H59.9852C56.3219 9.14397 45.7429 0.998245 33.2627 0.998245C20.7726 0.998245 10.1867 9.15702 6.53152 20.4407C6.4675 20.4393 6.40308 20.4385 6.33828 20.4385C5.25267 20.4385 4.32452 20.6377 3.55382 21.0359C2.78313 21.4341 2.19889 21.9899 1.80111 22.7034C1.41162 23.4086 1.21687 24.2216 1.21687 25.1425C1.21687 26.0883 1.41162 26.8972 1.80111 27.5691C2.19889 28.2328 2.66711 28.7721 3.20577 29.1869C3.69786 29.5583 4.36286 30.0024 5.20076 30.5191C5.28678 32.2829 5.53509 34.0039 5.93105 35.6676C5.88504 35.6695 5.83846 35.6704 5.79133 35.6704C5.29411 35.6704 4.79274 35.5709 4.28723 35.3717C3.79 35.1726 3.34665 34.932 2.95715 34.65C2.56766 34.3679 2.27761 34.1024 2.08701 33.8535L0.819092 36.4669C1.11743 36.7821 1.52349 37.0849 2.03729 37.3753C2.55109 37.6657 3.14776 37.9021 3.8273 38.0846C4.51512 38.2671 5.24438 38.3584 6.01508 38.3584C6.25243 38.3584 6.48294 38.3494 6.70663 38.3314C8.93045 44.7606 13.4181 50.1313 19.2142 53.4879L19.7154 52.6225C14.1768 49.4151 9.87811 44.3022 7.71311 38.1796C8.12419 38.0855 8.50705 37.9543 8.86169 37.7859C9.66553 37.396 10.2829 36.836 10.7138 36.106C11.1448 35.3759 11.3602 34.5089 11.3602 33.5051C11.3602 32.5593 11.1696 31.7629 10.7884 31.1158C10.4155 30.4604 9.95144 29.9211 9.3962 29.498C8.84097 29.0749 8.03712 28.5523 6.98467 27.93C6.70125 27.7598 6.44553 27.6005 6.2175 27.452C6.30783 25.9653 6.51777 24.511 6.8378 23.0985C7.14171 23.1343 7.43513 23.2142 7.71807 23.3381C8.11585 23.504 8.45562 23.7073 8.73738 23.9478C9.01914 24.1801 9.23046 24.3958 9.37134 24.595L10.7636 22.0563C9.86187 21.2357 8.79225 20.7273 7.5547 20.531ZM5.80064 23.1564C5.46942 23.2441 5.19284 23.4042 4.97091 23.6367C4.62285 24.0018 4.44883 24.4622 4.44883 25.0181C4.44883 25.4412 4.55241 25.8186 4.75959 26.1505C4.90142 26.3635 5.07018 26.5621 5.26586 26.7463C5.36794 25.5259 5.54786 24.3276 5.80064 23.1564ZM6.24245 31.1668C6.35134 32.6315 6.5764 34.0638 6.90844 35.4545C7.09736 35.3719 7.27193 35.2655 7.43217 35.1353C7.87967 34.7703 8.10342 34.2601 8.10342 33.6047C8.10342 33.1815 7.99983 32.8165 7.79266 32.5096C7.59377 32.1943 7.32444 31.9164 6.98467 31.6758C6.7962 31.5343 6.54879 31.3646 6.24245 31.1668ZM39.1492 20.7372V38.0846H38.9006L30.597 28.9505L29.8263 27.9549L29.9506 30.3691V38.0846H26.8927V20.7372H27.1661L35.3455 29.9958L36.2156 31.1282L36.0913 28.7514V20.7372H39.1492ZM45.3678 38.0846C46.0556 38.2671 46.7849 38.3584 47.5556 38.3584C48.6495 38.3584 49.5984 38.1676 50.4022 37.7859C51.2061 37.396 51.8234 36.836 52.2544 36.106C52.6853 35.3759 52.9008 34.5089 52.9008 33.5051C52.9008 32.5593 52.7102 31.7629 52.329 31.1158C51.956 30.4604 51.492 29.9211 50.9367 29.498C50.3815 29.0749 49.5776 28.5523 48.5252 27.93C47.9451 27.5816 47.481 27.2788 47.133 27.0216C46.7932 26.7644 46.5156 26.4741 46.3001 26.1505C46.0929 25.8186 45.9893 25.4412 45.9893 25.0181C45.9893 24.4622 46.1634 24.0018 46.5114 23.6367C46.8678 23.2634 47.365 23.0767 48.0031 23.0767C48.4423 23.0767 48.8608 23.1639 49.2586 23.3381C49.6564 23.504 49.9961 23.7073 50.2779 23.9478C50.5597 24.1801 50.771 24.3958 50.9119 24.595L52.3041 22.0563C51.119 20.9778 49.6439 20.4385 47.8788 20.4385C46.7932 20.4385 45.865 20.6377 45.0943 21.0359C44.3237 21.4341 43.7394 21.9899 43.3416 22.7034C42.9521 23.4086 42.7574 24.2216 42.7574 25.1425C42.7574 26.0883 42.9521 26.8972 43.3416 27.5691C43.7394 28.2328 44.2076 28.7721 44.7463 29.1869C45.285 29.5934 46.0308 30.0871 46.9838 30.6678C47.6799 31.0909 48.1937 31.4269 48.5252 31.6758C48.865 31.9164 49.1343 32.1943 49.3332 32.5096C49.5404 32.8165 49.6439 33.1815 49.6439 33.6047C49.6439 34.2601 49.4202 34.7703 48.9727 35.1353C48.5335 35.492 47.9865 35.6704 47.3319 35.6704C46.8346 35.6704 46.3333 35.5709 45.8278 35.3717C45.3305 35.1726 44.8872 34.932 44.4977 34.65C44.1082 34.3679 43.8181 34.1024 43.6275 33.8535L42.3596 36.4669C42.6579 36.7821 43.064 37.0849 43.5778 37.3753C44.0916 37.6657 44.6883 37.9021 45.3678 38.0846ZM24.5616 20.4137H13.8712V24.147H24.5616V20.4137ZM13.8712 27.1336H21.3296V30.8669H13.8712V27.1336ZM13.8712 34.3513H24.5616V38.0846H13.8712V34.3513ZM66.5768 34.3513H55.8864V38.0846H66.5768V34.3513ZM32.6414 15.5604H30.6525V16.0581H32.6414V15.5604ZM37.1165 15.5604H35.3762V16.0581H37.1165V15.5604ZM36.625 16.6803H35.3762V17.1781H36.625V16.6803ZM35.3762 17.8003H37.1165V18.2981H35.3762V17.8003ZM31.3984 18.2981V16.307H31.8979V18.2981H31.3984ZM32.8902 15.5604V18.2981H33.3897V15.5604H32.8902ZM34.3815 18.2981V15.5604H34.881V18.2981H34.3815ZM34.1352 16.5559H33.6356V17.0537H34.1352V16.5559ZM61.1096 31.8624C61.1096 31.9999 60.9978 32.1113 60.8598 32.1113C60.7219 32.1113 60.6101 31.9999 60.6101 31.8624C60.6101 31.725 60.7219 31.6135 60.8598 31.6135C60.9978 31.6135 61.1096 31.725 61.1096 31.8624ZM60.6113 33.8535C60.7492 33.8535 60.861 33.7421 60.861 33.6046C60.861 33.4672 60.7492 33.3558 60.6113 33.3558C60.4733 33.3558 60.3615 33.4672 60.3615 33.6046C60.3615 33.7421 60.4733 33.8535 60.6113 33.8535ZM59.1208 38.8313C59.1208 38.9687 59.009 39.0801 58.8711 39.0801C58.7332 39.0801 58.6213 38.9687 58.6213 38.8313C58.6213 38.6938 58.7332 38.5824 58.8711 38.5824C59.009 38.5824 59.1208 38.6938 59.1208 38.8313ZM58.1252 40.8224C58.2631 40.8224 58.3749 40.7109 58.3749 40.5735C58.3749 40.436 58.2631 40.3246 58.1252 40.3246C57.9872 40.3246 57.8754 40.436 57.8754 40.5735C57.8754 40.7109 57.9872 40.8224 58.1252 40.8224ZM55.3906 45.5512C55.5285 45.5512 55.6404 45.4398 55.6404 45.3023C55.6404 45.1649 55.5285 45.0534 55.3906 45.0534C55.2527 45.0534 55.1408 45.1649 55.1408 45.3023C55.1408 45.4398 55.2527 45.5512 55.3906 45.5512ZM43.7057 54.76C43.8436 54.76 43.9555 54.6486 43.9555 54.5111C43.9555 54.3737 43.8436 54.2622 43.7057 54.2622C43.5678 54.2622 43.4559 54.3737 43.4559 54.5111C43.4559 54.6486 43.5678 54.76 43.7057 54.76ZM53.1542 48.289C53.1542 48.4264 53.0424 48.5378 52.9044 48.5378C52.7665 48.5378 52.6547 48.4264 52.6547 48.289C52.6547 48.1515 52.7665 48.0401 52.9044 48.0401C53.0424 48.0401 53.1542 48.1515 53.1542 48.289ZM57.6291 42.3157C57.6291 42.4531 57.5173 42.5646 57.3793 42.5646C57.2414 42.5646 57.1296 42.4531 57.1296 42.3157C57.1296 42.1782 57.2414 42.0668 57.3793 42.0668C57.5173 42.0668 57.6291 42.1782 57.6291 42.3157ZM51.6613 49.7823C51.7993 49.7823 51.9111 49.6709 51.9111 49.5334C51.9111 49.3959 51.7993 49.2845 51.6613 49.2845C51.5234 49.2845 51.4116 49.3959 51.4116 49.5334C51.4116 49.6709 51.5234 49.7823 51.6613 49.7823ZM50.4193 50.7778C50.4193 50.9153 50.3075 51.0267 50.1696 51.0267C50.0316 51.0267 49.9198 50.9153 49.9198 50.7778C49.9198 50.6404 50.0316 50.5289 50.1696 50.5289C50.3075 50.5289 50.4193 50.6404 50.4193 50.7778ZM47.1861 53.0178C47.3241 53.0178 47.4359 52.9064 47.4359 52.7689C47.4359 52.6315 47.3241 52.52 47.1861 52.52C47.0482 52.52 46.9364 52.6315 46.9364 52.7689C46.9364 52.9064 47.0482 53.0178 47.1861 53.0178ZM39.7279 56.0044C39.8658 56.0044 39.9776 55.893 39.9776 55.7556C39.9776 55.6181 39.8658 55.5067 39.7279 55.5067C39.5899 55.5067 39.4781 55.6181 39.4781 55.7556C39.4781 55.893 39.5899 56.0044 39.7279 56.0044ZM37.9889 56.2533C37.9889 56.3908 37.8771 56.5022 37.7391 56.5022C37.6012 56.5022 37.4894 56.3908 37.4894 56.2533C37.4894 56.1159 37.6012 56.0045 37.7391 56.0045C37.8771 56.0045 37.9889 56.1159 37.9889 56.2533ZM35.7501 56.7511C35.888 56.7511 35.9998 56.6397 35.9998 56.5022C35.9998 56.3648 35.888 56.2533 35.7501 56.2533C35.6121 56.2533 35.5003 56.3648 35.5003 56.5022C35.5003 56.6397 35.6121 56.7511 35.7501 56.7511ZM34.011 56.7511C34.011 56.8886 33.8992 57 33.7613 57C33.6233 57 33.5115 56.8886 33.5115 56.7511C33.5115 56.6137 33.6233 56.5022 33.7613 56.5022C33.8992 56.5022 34.011 56.6137 34.011 56.7511ZM31.7722 57C31.9102 57 32.022 56.8886 32.022 56.7511C32.022 56.6137 31.9102 56.5022 31.7722 56.5022C31.6343 56.5022 31.5225 56.6137 31.5225 56.7511C31.5225 56.8886 31.6343 57 31.7722 57ZM30.0333 56.5022C30.0333 56.6397 29.9214 56.7511 29.7835 56.7511C29.6456 56.7511 29.5337 56.6397 29.5337 56.5022C29.5337 56.3648 29.6456 56.2533 29.7835 56.2533C29.9214 56.2533 30.0333 56.3648 30.0333 56.5022ZM27.7944 56.2533C27.9323 56.2533 28.0442 56.1419 28.0442 56.0045C28.0442 55.867 27.9323 55.7556 27.7944 55.7556C27.6565 55.7556 27.5446 55.867 27.5446 56.0045C27.5446 56.1419 27.6565 56.2533 27.7944 56.2533ZM25.8069 55.5067C25.8069 55.6441 25.6951 55.7556 25.5572 55.7556C25.4192 55.7556 25.3074 55.6441 25.3074 55.5067C25.3074 55.3692 25.4192 55.2578 25.5572 55.2578C25.6951 55.2578 25.8069 55.3692 25.8069 55.5067ZM23.5681 55.0089C23.7061 55.0089 23.8179 54.8975 23.8179 54.76C23.8179 54.6226 23.7061 54.5111 23.5681 54.5111C23.4302 54.5111 23.3184 54.6226 23.3184 54.76C23.3184 54.8975 23.4302 55.0089 23.5681 55.0089ZM22.0776 54.0134C22.0776 54.1508 21.9658 54.2622 21.8279 54.2622C21.6899 54.2622 21.5781 54.1508 21.5781 54.0134C21.5781 53.8759 21.6899 53.7645 21.8279 53.7645C21.9658 53.7645 22.0776 53.8759 22.0776 54.0134ZM20.0876 53.5156C20.2256 53.5156 20.3374 53.4042 20.3374 53.2667C20.3374 53.1292 20.2256 53.0178 20.0876 53.0178C19.9497 53.0178 19.8379 53.1292 19.8379 53.2667C19.8379 53.4042 19.9497 53.5156 20.0876 53.5156ZM41.9667 55.2578C41.9667 55.3952 41.8549 55.5067 41.717 55.5067C41.579 55.5067 41.4672 55.3952 41.4672 55.2578C41.4672 55.1203 41.579 55.0089 41.717 55.0089C41.8549 55.0089 41.9667 55.1203 41.9667 55.2578ZM56.385 44.0579C56.5229 44.0579 56.6348 43.9465 56.6348 43.809C56.6348 43.6715 56.5229 43.5601 56.385 43.5601C56.2471 43.5601 56.1352 43.6715 56.1352 43.809C56.1352 43.9465 56.2471 44.0579 56.385 44.0579ZM45.6957 53.7645C45.6957 53.9019 45.5839 54.0134 45.4459 54.0134C45.308 54.0134 45.1962 53.9019 45.1962 53.7645C45.1962 53.627 45.308 53.5156 45.4459 53.5156C45.5839 53.5156 45.6957 53.627 45.6957 53.7645ZM48.6779 52.0223C48.8158 52.0223 48.9276 51.9108 48.9276 51.7734C48.9276 51.6359 48.8158 51.5245 48.6779 51.5245C48.5399 51.5245 48.4281 51.6359 48.4281 51.7734C48.4281 51.9108 48.5399 52.0223 48.6779 52.0223ZM54.3972 46.7956C54.3972 46.9331 54.2853 47.0445 54.1474 47.0445C54.0095 47.0445 53.8976 46.9331 53.8976 46.7956C53.8976 46.6582 54.0095 46.5468 54.1474 46.5468C54.2853 46.5468 54.3972 46.6582 54.3972 46.7956Z" fill="black"/>
</svg>
