<?xml version="1.0" standalone="no"?>
<!DOCTYPE svg PUBLIC "-//W3C//DTD SVG 20010904//EN"
 "http://www.w3.org/TR/2001/REC-SVG-20010904/DTD/svg10.dtd">
<svg version="1.0" xmlns="http://www.w3.org/2000/svg"
 width="1075.000000pt" height="761.000000pt" viewBox="0 0 1075.000000 761.000000"
 preserveAspectRatio="xMidYMid meet">

<g transform="translate(0.000000,761.000000) scale(0.100000,-0.100000)"
fill="#000000" stroke="none">
<path d="M6660 6540 c-212 -39 -390 -72 -396 -74 -14 -5 15 -176 30 -176 6 0
189 31 407 70 433 76 437 76 500 23 17 -15 37 -41 44 -58 7 -16 43 -205 81
-418 l68 -388 35 6 c105 18 141 28 141 38 0 50 -142 804 -159 841 -30 68 -101
139 -173 171 -102 46 -142 43 -578 -35z"/>
<path d="M3263 5940 c-238 -42 -453 -85 -478 -95 -67 -25 -147 -103 -179 -174
-46 -103 -45 -122 25 -525 l64 -366 25 0 c14 1 54 6 90 13 47 9 64 17 63 27
-1 8 -29 172 -63 363 -53 302 -60 353 -49 384 15 47 63 100 102 112 18 6 230
45 472 87 242 42 441 78 443 79 2 2 -4 40 -12 85 -9 45 -16 84 -16 86 0 10
-81 -3 -487 -76z"/>
<path d="M5385 5325 c-90 -16 -184 -63 -251 -127 -116 -110 -128 -188 -127
-828 1 -433 3 -484 22 -573 24 -120 48 -172 114 -243 102 -112 248 -155 449
-134 268 28 408 170 448 456 11 84 14 406 5 724 -9 346 -17 403 -71 517 -51
108 -147 179 -274 203 -85 16 -237 19 -315 5z m191 -390 c44 -29 47 -69 48
-560 1 -510 1 -508 -64 -535 -48 -20 -80 -4 -108 52 -24 47 -24 51 -27 460 -4
432 2 537 32 571 34 37 74 42 119 12z"/>
<path d="M3353 5312 c-18 -2 -37 -11 -41 -20 -5 -9 -10 -416 -11 -903 l-3
-887 29 -32 29 -32 317 1 c209 1 326 6 342 13 35 16 43 55 41 208 -3 188 -12
200 -134 189 -108 -10 -150 -5 -175 20 -22 21 -22 25 -24 414 -3 378 -3 865 0
956 2 66 -10 71 -178 69 -78 0 -146 1 -151 3 -5 3 -24 3 -41 1z"/>
<path d="M4581 5298 c-34 -9 -47 -39 -55 -126 -7 -76 -75 -424 -85 -435 -7 -7
-71 289 -93 428 -11 75 -26 113 -48 125 -9 5 -100 9 -203 9 -208 0 -213 -2
-210 -68 1 -43 93 -360 158 -551 26 -74 60 -175 75 -225 15 -49 46 -142 68
-206 l41 -116 -5 -331 c-5 -318 -4 -332 14 -350 18 -18 32 -20 197 -16 97 2
185 9 195 14 20 11 37 71 25 90 -10 17 -15 436 -5 530 6 64 22 123 64 237 30
84 69 205 85 270 17 65 51 178 76 252 25 74 53 164 61 200 8 36 26 95 38 131
24 67 25 106 3 127 -14 14 -349 23 -396 11z"/>
<path d="M7105 5303 c-196 -5 -190 1 -179 -153 4 -63 8 -182 9 -265 1 -82 5
-226 9 -320 6 -154 6 -168 -9 -151 -8 11 -15 26 -15 34 0 22 -98 368 -140 492
-22 63 -50 154 -64 201 -14 47 -36 101 -49 120 l-23 34 -183 3 c-150 2 -188 0
-207 -13 l-23 -15 -2 -837 c-1 -461 -2 -867 -2 -902 -1 -99 2 -100 224 -98
227 2 214 -8 204 167 -10 156 -14 770 -6 770 3 0 28 -76 55 -168 87 -295 176
-585 202 -658 39 -112 37 -111 242 -106 168 4 173 5 188 28 14 20 15 68 13
336 -3 428 -3 420 0 978 l3 494 -22 18 c-12 10 -34 17 -49 16 -14 -1 -93 -4
-176 -5z"/>
<path d="M3500 3305 c-65 -21 -115 -67 -150 -138 -44 -89 -53 -169 -48 -407 5
-233 18 -287 87 -363 50 -56 104 -77 212 -84 123 -8 129 -2 129 123 0 105 -6
114 -77 114 -53 0 -98 30 -114 77 -20 54 -19 355 0 401 19 46 61 65 121 57 61
-8 70 5 70 108 0 104 -12 117 -110 123 -50 2 -90 -1 -120 -11z"/>
<path d="M3952 3301 c-5 -3 -16 -44 -25 -91 -9 -47 -34 -169 -56 -271 -21
-103 -44 -222 -51 -265 -6 -44 -22 -136 -37 -207 -19 -95 -22 -131 -14 -141 8
-10 38 -13 109 -12 53 1 102 4 108 8 6 4 14 35 18 69 7 72 18 89 57 89 42 0
59 -24 59 -81 0 -85 5 -89 119 -89 125 0 126 1 106 106 -9 44 -27 157 -40 253
-14 95 -41 251 -59 345 -19 94 -37 194 -41 223 -4 29 -12 56 -18 61 -13 10
-221 12 -235 3z m137 -488 c7 -51 10 -97 6 -103 -7 -12 -61 -14 -68 -2 -5 7
16 160 29 212 6 23 7 24 14 5 4 -11 13 -61 19 -112z"/>
<path d="M5081 3300 c-8 -4 -13 -157 -17 -489 -5 -401 -4 -485 7 -492 17 -11
179 -12 195 -1 14 9 31 981 18 983 -33 6 -194 5 -203 -1z"/>
<path d="M5383 3300 c-22 -9 -23 -15 -23 -109 0 -111 8 -124 63 -114 58 11 57
14 57 -381 -1 -198 -1 -367 0 -373 0 -10 28 -13 104 -13 88 0 105 3 110 17 4
9 6 178 6 376 -1 198 2 363 7 368 4 4 28 9 53 11 l45 3 3 99 c2 64 -1 103 -9
112 -9 11 -51 14 -203 13 -105 0 -201 -4 -213 -9z"/>
<path d="M5951 3301 c-5 -3 -18 -53 -29 -111 -12 -58 -37 -178 -56 -267 -19
-89 -39 -197 -46 -240 -6 -43 -23 -138 -37 -210 -20 -101 -23 -136 -14 -146
13 -17 198 -20 219 -4 6 5 12 30 12 56 0 64 18 95 56 99 47 5 64 -19 64 -87 0
-31 5 -62 12 -69 8 -8 47 -12 110 -12 118 0 121 3 101 104 -7 39 -25 150 -39
246 -13 96 -40 254 -59 350 -18 96 -37 195 -40 220 -12 79 -11 78 -135 77 -60
0 -114 -3 -119 -6z m134 -471 c9 -57 13 -110 11 -117 -6 -14 -62 -18 -70 -5
-5 8 20 191 30 221 8 24 13 7 29 -99z"/>
<path d="M6427 3296 c-3 -6 -5 -222 -6 -480 -2 -429 -1 -470 15 -487 15 -17
33 -19 181 -19 94 0 173 4 184 10 16 9 19 22 19 95 0 117 2 115 -86 115 -71 0
-75 1 -85 27 -6 16 -9 158 -7 377 1 193 -1 356 -5 362 -9 16 -204 16 -210 0z"/>
<path d="M6909 3298 c-19 -7 -19 -17 -18 -483 1 -406 3 -477 16 -490 22 -23
425 -22 447 1 20 20 23 188 4 201 -7 4 -62 10 -123 13 l-110 5 0 85 0 85 95 3
c120 3 130 12 130 116 0 39 -5 78 -10 86 -7 11 -36 16 -117 20 l-108 5 0 70 0
70 108 5 c81 4 110 9 117 20 5 8 10 50 10 92 0 111 1 111 -235 106 -102 -1
-195 -6 -206 -10z"/>
<path d="M4432 3283 c-5 -10 -9 -232 -8 -493 l1 -475 110 0 110 0 5 123 c6
139 7 142 83 142 120 0 210 87 238 228 17 88 6 253 -22 326 -27 73 -58 109
-121 140 -50 25 -59 26 -220 26 -149 0 -168 -2 -176 -17z m272 -199 c24 -9 37
-39 47 -108 13 -97 -13 -166 -66 -166 -33 0 -45 43 -45 159 0 114 12 135 64
115z"/>
<path d="M7936 2884 c-38 -8 -70 -15 -72 -16 -1 -2 29 -178 67 -393 45 -256
67 -402 62 -424 -7 -40 -61 -104 -101 -119 -15 -6 -184 -38 -377 -72 -192 -33
-359 -62 -371 -65 -20 -4 -20 -6 -5 -92 8 -49 15 -89 16 -90 0 -1 174 29 385
66 249 44 404 76 438 91 78 34 156 122 182 206 11 36 20 83 20 103 0 30 -117
718 -135 799 -6 25 -11 25 -109 6z"/>
<path d="M3263 1986 c-35 -7 -65 -14 -67 -17 -10 -10 124 -719 144 -767 27
-63 111 -145 177 -173 93 -40 133 -37 592 45 233 41 426 77 428 80 5 5 -18
152 -27 166 -3 5 -176 -21 -430 -65 -286 -51 -435 -73 -458 -69 -44 8 -108 65
-121 107 -6 18 -35 174 -66 347 -30 173 -57 325 -60 338 -6 25 -19 26 -112 8z"/>
</g>
</svg>
