<svg width="50" height="57" viewBox="0 0 50 57" fill="none" xmlns="http://www.w3.org/2000/svg">
<path d="M35.6467 32.1283H14.2187C9.70759 32.1283 6.13626 28.5375 6.13626 24.0017V15.6862C6.13626 11.1504 9.70759 7.55957 14.2187 7.55957H35.8347C40.1579 7.55957 43.7292 11.1504 43.7292 15.6862V24.1907C43.7292 28.5375 40.1579 32.1283 35.6467 32.1283ZM14.2187 11.3394C11.7752 11.3394 9.89556 13.2293 9.89556 15.6862V24.1907C9.89556 26.4586 11.7752 28.3485 14.2187 28.3485H35.8347C38.2782 28.3485 40.1579 26.4586 40.1579 24.0017V15.6862C39.9699 13.2293 38.0903 11.3394 35.6467 11.3394H14.2187Z" fill="white"/>
<path d="M30.5717 18.8989H19.2938C18.166 18.8989 17.4141 18.143 17.4141 17.009C17.4141 15.8751 18.166 15.1191 19.2938 15.1191H30.5717C31.6994 15.1191 32.4513 15.8751 32.4513 17.009C32.4513 18.143 31.6994 18.8989 30.5717 18.8989Z" fill="white"/>
<path d="M12.5263 11.5284H37.5256C38.0895 11.5284 38.8413 11.1504 39.0293 10.5835C39.4052 10.0165 39.4052 9.44952 39.2173 8.69355C36.3978 3.02384 31.6987 0 24.9319 0C18.1652 0 13.4661 3.02384 10.8346 8.88254C10.4587 9.44952 10.4587 10.2055 10.8346 10.7724C11.2105 11.3394 11.7744 11.5284 12.5263 11.5284Z" fill="white"/>
<path d="M17.4147 36.4752V39.3101C15.7231 39.6881 14.0314 40.255 12.5276 40.822C15.5351 42.7119 20.0462 43.8458 24.9333 43.8458C29.8204 43.8458 34.3316 42.7119 37.339 40.822C35.8353 40.255 34.1436 39.6881 32.4519 39.3101V36.4752C34.1436 35.1523 35.6473 33.2624 36.9631 31.1835C37.339 30.6165 37.339 29.8606 36.9631 29.2936C36.5871 28.7266 36.0232 28.3486 35.2714 28.3486H14.5953C13.8434 28.3486 13.2795 28.7266 12.9036 29.2936C12.5277 29.8606 12.5277 30.6165 12.9036 31.1835C14.4073 33.2624 15.7231 35.1523 17.4147 36.4752Z" fill="white"/>
<path d="M41.0977 42.9009C37.5264 45.9247 31.6995 47.8146 24.9327 47.8146C18.354 47.8146 12.5271 45.9247 8.76777 42.9009C4.06865 45.9247 1.06121 50.0825 0.497314 54.6183C0.497314 55.1852 0.685279 55.7522 0.873244 56.1302C1.06121 56.5082 2.00103 56.6972 2.37696 56.6972H47.4885C48.0524 56.6972 48.6163 56.5082 48.8043 56.1302C48.9922 55.7522 49.3682 55.1852 49.1802 54.6183C48.8043 49.8935 45.6089 45.7357 41.0977 42.9009Z" fill="white"/>
</svg>
