<svg width="60" height="60" viewBox="0 0 60 60" fill="none" xmlns="http://www.w3.org/2000/svg">
<path d="M1.14333 31.0052C1.69252 31.0052 2.13823 30.5581 2.13823 30.005C2.13823 14.5634 14.6351 2.00033 29.9953 2.00033C36.29 2.00033 42.3101 4.11569 47.209 8.00133H41.934C41.3849 8.00133 40.9392 8.44841 40.9392 9.0015C40.9392 9.55459 41.3849 10.0017 41.934 10.0017H49.8086C49.8743 10.0077 49.936 10.0087 50.0007 10.0017H50.8871V1.00017C50.8871 0.447075 50.4414 0 49.8922 0C49.343 0 48.8973 0.447075 48.8973 1.00017V6.81113C43.5687 2.4084 36.9407 0 29.9953 0C13.5377 0 0.148438 13.4602 0.148438 30.005C0.148438 30.5581 0.594151 31.0052 1.14333 31.0052Z" fill="white"/>
<path d="M29.9952 8.00122C17.9261 8.00122 8.10745 17.8719 8.10745 30.0049C8.10745 42.1379 17.9261 52.0086 29.9952 52.0086C42.0642 52.0086 51.8829 42.1379 51.8829 30.0049C51.8829 17.8719 42.0642 8.00122 29.9952 8.00122ZM29.9952 50.0082C19.0234 50.0082 10.0972 41.0347 10.0972 30.0049C10.0972 18.975 19.0234 10.0016 29.9952 10.0016C40.9669 10.0016 49.8931 18.975 49.8931 30.0049C49.8931 41.0347 40.9669 50.0082 29.9952 50.0082Z" fill="white"/>
<path d="M29.995 15.002C30.544 15.002 30.9895 14.555 30.9895 14.002V12.002C30.9895 11.449 30.544 11.002 29.995 11.002C29.446 11.002 29.0004 11.449 29.0004 12.002V14.002C29.0004 14.555 29.446 15.002 29.995 15.002Z" fill="white"/>
<path d="M29.995 45.0076C29.446 45.0076 29.0004 45.4546 29.0004 46.0076V48.0076C29.0004 48.5606 29.446 49.0076 29.995 49.0076C30.544 49.0076 30.9895 48.5606 30.9895 48.0076V46.0076C30.9895 45.4546 30.544 45.0076 29.995 45.0076Z" fill="white"/>
<path d="M45.9135 31.0049H47.9033C48.4525 31.0049 48.8982 30.5579 48.8982 30.0049C48.8982 29.4519 48.4525 29.0049 47.9033 29.0049H45.9135C45.3643 29.0049 44.9186 29.4519 44.9186 30.0049C44.9186 30.5579 45.3643 31.0049 45.9135 31.0049Z" fill="white"/>
<path d="M14.0769 29.0049H12.0871C11.5379 29.0049 11.0922 29.4519 11.0922 30.0049C11.0922 30.5579 11.5379 31.0049 12.0871 31.0049H14.0769C14.6261 31.0049 15.0718 30.5579 15.0718 30.0049C15.0718 29.4519 14.6261 29.0049 14.0769 29.0049Z" fill="white"/>
<path d="M30.9901 25.1462V20.0033C30.9901 19.4502 30.5444 19.0032 29.9952 19.0032C29.446 19.0032 29.0003 19.4502 29.0003 20.0033V25.1462C27.2891 25.5933 26.0156 27.1455 26.0156 29.0048C26.0156 29.745 26.2295 30.4291 26.5797 31.0242L18.3479 39.2996C17.9589 39.6906 17.9589 40.3227 18.3479 40.7138C18.5419 40.9088 18.7966 41.0068 19.0513 41.0068C19.306 41.0068 19.5607 40.9088 19.7547 40.7138L27.9865 32.4384C28.5784 32.7905 29.259 33.0055 29.9952 33.0055C32.1899 33.0055 33.9748 31.2112 33.9748 29.0048C33.9748 27.1455 32.7013 25.5933 30.9901 25.1462ZM29.9952 31.0052C28.8978 31.0052 28.0054 30.108 28.0054 29.0048C28.0054 27.9017 28.8978 27.0045 29.9952 27.0045C31.0925 27.0045 31.985 27.9017 31.985 29.0048C31.985 30.108 31.0925 31.0052 29.9952 31.0052Z" fill="white"/>
<path d="M11.9766 52.6688C11.6484 53.1078 11.7379 53.7378 12.1855 54.0678C12.3546 54.1978 12.5634 54.2578 12.7723 54.2578C13.0806 54.2578 13.379 54.1278 13.5779 53.8578C13.8962 53.4188 13.8067 52.7888 13.369 52.4588C12.9314 52.1288 12.3058 52.2188 11.9766 52.6688Z" fill="white"/>
<path d="M7.34085 46.2776C7.02258 45.8386 6.396 45.7276 5.94844 46.0486C5.50089 46.3786 5.40143 46.9986 5.71969 47.4476C5.91861 47.7186 6.21698 47.8676 6.53524 47.8676C6.73416 47.8676 6.93307 47.8076 7.1121 47.6786C7.55866 47.3576 7.65911 46.7276 7.34085 46.2776Z" fill="white"/>
<path d="M7.72835 48.458C7.32057 48.827 7.28079 49.458 7.64878 49.867C7.83775 50.097 8.11623 50.208 8.39471 50.208C8.62347 50.208 8.86216 50.128 9.05113 49.958C9.45891 49.588 9.49869 48.958 9.1307 48.548C8.77365 48.128 8.14707 48.098 7.72835 48.458Z" fill="white"/>
<path d="M11.1514 50.6083C10.7535 50.2383 10.117 50.2683 9.74901 50.6693C9.37107 51.0783 9.40091 51.7093 9.80868 52.0893C9.99765 52.2593 10.2363 52.3493 10.475 52.3493C10.7436 52.3493 11.0121 52.2393 11.211 52.0293C11.579 51.6193 11.5591 50.9893 11.1514 50.6193C11.1514 50.6083 11.1514 50.6083 11.1514 50.6083Z" fill="white"/>
<path d="M5.78866 43.8473C5.77872 43.8473 5.77872 43.8473 5.77872 43.8473C5.51018 43.3673 4.90349 43.1973 4.42609 43.4773C3.9487 43.7483 3.77962 44.3573 4.0581 44.8373C4.23713 45.1563 4.57528 45.3373 4.92338 45.3373C5.08251 45.3373 5.26154 45.2973 5.41072 45.2073C5.88812 44.9373 6.0572 44.3263 5.78866 43.8473Z" fill="white"/>
<path d="M58.7871 32.1252C58.807 32.1252 58.8169 32.1252 58.8268 32.1252C59.3639 32.1252 59.8015 31.6942 59.8214 31.1652C59.8413 30.6042 59.4136 30.1442 58.8666 30.1252C58.3196 30.1042 57.8522 30.5352 57.8323 31.0852C57.8124 31.6352 58.2391 32.1052 58.7871 32.1252Z" fill="white"/>
<path d="M1.40159 33.9955C1.94861 33.9345 2.34644 33.4445 2.28676 32.8945C2.22709 32.3445 1.73975 31.9445 1.19273 32.0045C0.645717 32.0545 0.247888 32.5545 0.307562 33.0945C0.357291 33.6145 0.794903 33.9945 1.29219 33.9945C1.33197 33.9955 1.36181 33.9955 1.40159 33.9955Z" fill="white"/>
<path d="M1.95854 36.936C2.49561 36.826 2.84371 36.296 2.72436 35.756C2.61496 35.216 2.08784 34.865 1.55077 34.985C1.0137 35.095 0.665595 35.626 0.784944 36.166C0.874455 36.636 1.29218 36.956 1.74968 36.956C1.81831 36.956 1.88892 36.956 1.95854 36.936Z" fill="white"/>
<path d="M4.48485 41.2568C4.26605 40.7568 3.67925 40.5268 3.17202 40.7468C2.67473 40.9668 2.44598 41.5568 2.66478 42.0658C2.83386 42.4358 3.19191 42.6668 3.57979 42.6668C3.70909 42.6668 3.84833 42.6368 3.97762 42.5758C4.47391 42.3568 4.70266 41.7668 4.48485 41.2568Z" fill="white"/>
<path d="M3.45937 38.5563C3.30023 38.0263 2.73333 37.7363 2.21615 37.9063C1.68903 38.0763 1.4006 38.6363 1.56968 39.1673C1.70892 39.5873 2.0968 39.8563 2.51452 39.8563C2.61398 39.8563 2.72338 39.8463 2.82284 39.8163C3.34101 39.6463 3.62944 39.0753 3.45937 38.5563Z" fill="white"/>
<path d="M29.4578 57.9997C28.9108 57.9887 28.4533 58.4297 28.4433 58.9787C28.4334 59.5397 28.871 59.9887 29.418 59.9997C29.4279 59.9997 29.4379 59.9997 29.4379 59.9997C29.9849 59.9997 30.4225 59.5687 30.4325 59.0197C30.4414 58.4697 30.0048 58.0097 29.4578 57.9997Z" fill="white"/>
<path d="M52.0121 47.1477C51.674 47.5777 51.7535 48.2087 52.1812 48.5477C52.3702 48.6877 52.579 48.7577 52.7978 48.7577C53.0863 48.7577 53.3846 48.6277 53.5835 48.3667C53.9217 47.9367 53.8421 47.3067 53.4045 46.9677C52.9669 46.6287 52.3503 46.7077 52.0121 47.1477Z" fill="white"/>
<path d="M45.7432 53.0889C45.2956 53.3989 45.1763 54.0279 45.4945 54.4789C45.6835 54.7589 45.9918 54.9089 46.3101 54.9089C46.509 54.9089 46.698 54.8589 46.877 54.7389C47.3245 54.4289 47.4439 53.7999 47.1256 53.3489C46.8173 52.8889 46.2017 52.7789 45.7432 53.0889Z" fill="white"/>
<path d="M48.0328 51.3276C47.6151 51.6876 47.5653 52.3176 47.9234 52.7376C48.1223 52.9676 48.4008 53.0886 48.6793 53.0886C48.908 53.0886 49.1368 53.0086 49.3257 52.8486C49.7434 52.4886 49.7932 51.8586 49.4351 51.4386C49.0761 51.0186 48.4505 50.9686 48.0328 51.3276Z" fill="white"/>
<path d="M55.0253 44.4462C54.5578 44.1562 53.9412 44.3062 53.6528 44.7662C53.3643 45.2362 53.5036 45.8562 53.971 46.1462C54.1401 46.2472 54.3191 46.2962 54.4981 46.2962C54.8264 46.2962 55.1546 46.1362 55.3435 45.8252C55.633 45.3572 55.4937 44.7362 55.0253 44.4462Z" fill="white"/>
<path d="M50.1318 49.338C49.7439 49.737 49.7638 50.367 50.1617 50.748C50.3506 50.937 50.5993 51.027 50.8479 51.027C51.1065 51.027 51.375 50.927 51.564 50.717C51.942 50.317 51.932 49.687 51.5342 49.307C51.1363 48.927 50.5088 48.938 50.1318 49.338Z" fill="white"/>
<path d="M58.6964 33.1147C58.1594 33.0357 57.6521 33.4257 57.5726 33.9657C57.493 34.5157 57.8709 35.0157 58.4179 35.0957C58.4677 35.1057 58.5174 35.1057 58.5572 35.1057C59.0445 35.1057 59.4722 34.7467 59.5418 34.2467C59.6224 33.7057 59.2444 33.1947 58.6964 33.1147Z" fill="white"/>
<path d="M58.2299 36.0752C57.6928 35.9452 57.1558 36.2752 57.0165 36.8052C56.8872 37.3452 57.2154 37.8852 57.7426 38.0252C57.8221 38.0462 57.9017 38.0552 57.9813 38.0552C58.4288 38.0552 58.8366 37.7452 58.946 37.2952C59.0852 36.7562 58.756 36.2162 58.2299 36.0752Z" fill="white"/>
<path d="M15.7668 54.0691C15.2894 53.7901 14.6827 53.9391 14.4042 54.4201C14.1158 54.8901 14.2749 55.5101 14.7423 55.7901C14.9015 55.8901 15.0805 55.9301 15.2496 55.9301C15.5877 55.9301 15.9159 55.7601 16.1049 55.4401C16.3933 54.9691 16.2352 54.3591 15.7668 54.0691Z" fill="white"/>
<path d="M57.4528 38.9767C56.9356 38.7877 56.3588 39.0567 56.1797 39.5767C55.9908 40.0977 56.2494 40.6677 56.7665 40.8567C56.8759 40.8967 56.9953 40.9177 57.1047 40.9177C57.5125 40.9177 57.9003 40.6677 58.0396 40.2577C58.2295 39.7357 57.97 39.1667 57.4528 38.9767Z" fill="white"/>
<path d="M56.3794 41.7768C55.8921 41.5378 55.2854 41.7368 55.0467 42.2368C54.808 42.7368 55.0169 43.3378 55.5042 43.5768C55.6435 43.6468 55.7926 43.6778 55.9418 43.6778C56.3098 43.6778 56.6679 43.4678 56.8369 43.1168C57.0756 42.6158 56.8767 42.0168 56.3794 41.7768Z" fill="white"/>
<path d="M26.5824 57.7994C26.0354 57.7294 25.5481 58.1184 25.4784 58.6694C25.4088 59.2194 25.7967 59.7194 26.3437 59.7784V59.7894C26.3835 59.7894 26.4233 59.7894 26.4631 59.7894C26.9604 59.7894 27.388 59.4194 27.4477 58.9084C27.5173 58.3594 27.1284 57.8684 26.5824 57.7994Z" fill="white"/>
<path d="M20.9811 56.5096C20.4639 56.3286 19.897 56.5996 19.718 57.1296C19.5389 57.6496 19.8174 58.2196 20.3346 58.3996C20.444 58.4296 20.5534 58.4496 20.6628 58.4496C21.0706 58.4496 21.4585 58.1896 21.5977 57.7796C21.7767 57.2496 21.4983 56.6796 20.9811 56.5096Z" fill="white"/>
<path d="M23.7469 57.2995C23.2098 57.1795 22.6827 57.5095 22.5534 58.0495C22.434 58.5895 22.7722 59.1295 23.2993 59.2495C23.3789 59.2695 23.4485 59.2695 23.5281 59.2695C23.9756 59.2695 24.3933 58.9595 24.4928 58.4995C24.6211 57.9595 24.2839 57.4195 23.7469 57.2995Z" fill="white"/>
<path d="M18.3147 55.4294C17.8074 55.1894 17.2206 55.4084 16.9919 55.9084C16.7631 56.4084 16.972 57.0094 17.4693 57.2384C17.6085 57.2994 17.7478 57.3284 17.887 57.3284C18.2649 57.3284 18.623 57.1184 18.7921 56.7494C19.0208 56.2494 18.812 55.6584 18.3147 55.4294Z" fill="white"/>
<path d="M35.1884 57.5195C34.6513 57.6195 34.2933 58.1495 34.3928 58.6895C34.4823 59.1695 34.9099 59.5005 35.3774 59.5005C35.4371 59.5005 35.4967 59.5005 35.5564 59.4895C36.0935 59.3805 36.4515 58.8595 36.3521 58.3195C36.2526 57.7695 35.7255 57.4195 35.1884 57.5195Z" fill="white"/>
<path d="M37.9841 56.8395C37.4569 56.9885 37.1586 57.5495 37.3177 58.0785C37.447 58.5095 37.8448 58.7895 38.2725 58.7895C38.362 58.7895 38.4615 58.7785 38.5609 58.7495C39.088 58.5895 39.3864 58.0285 39.2273 57.4995C39.0672 56.9795 38.5112 56.6795 37.9841 56.8395Z" fill="white"/>
<path d="M40.7002 55.8592C40.193 56.0692 39.9543 56.6592 40.1631 57.1702C40.3223 57.5502 40.6903 57.7792 41.0781 57.7792C41.2074 57.7792 41.3367 57.7592 41.466 57.7102C41.9733 57.4892 42.212 56.9092 42.0031 56.3992C41.7833 55.8892 41.2074 55.6492 40.7002 55.8592Z" fill="white"/>
<path d="M32.3319 57.9087C31.7849 57.9597 31.3771 58.4387 31.4268 58.9887C31.4666 59.5097 31.9042 59.9087 32.4214 59.9087C32.4413 59.9087 32.4711 59.9087 32.501 59.9087V59.8987C33.048 59.8587 33.4558 59.3787 33.406 58.8287C33.3663 58.2797 32.8799 57.8687 32.3319 57.9087Z" fill="white"/>
<path d="M43.2959 54.609C42.8085 54.869 42.6295 55.479 42.8981 55.96C43.0771 56.3 43.4152 56.489 43.7733 56.489C43.9324 56.489 44.0915 56.449 44.2407 56.359C44.7281 56.099 44.9071 55.489 44.6386 55.009C44.381 54.519 43.7733 54.339 43.2959 54.609Z" fill="white"/>
</svg>
